<?xml version="1.0" standalone="no"?>
<!DOCTYPE svg PUBLIC "-//W3C//DTD SVG 20010904//EN"
 "http://www.w3.org/TR/2001/REC-SVG-20010904/DTD/svg10.dtd">
<svg version="1.0" xmlns="http://www.w3.org/2000/svg"
 width="700.000000pt" height="700.000000pt" viewBox="0 0 700.000000 700.000000"
 preserveAspectRatio="xMidYMid meet">
<metadata>
Created by potrace 1.11, written by Peter Selinger 2001-2013
</metadata>
<g transform="translate(0.000000,700.000000) scale(0.100000,-0.100000)"
fill="#000000" stroke="none">
<path d="M0 3500 l0 -3500 3500 0 3500 0 0 3500 0 3500 -3500 0 -3500 0 0
-3500z m4296 1630 l141 -255 629 -5 629 -5 57 -27 c73 -34 142 -103 176 -176
l27 -57 3 -1225 c2 -924 0 -1236 -9 -1270 -27 -101 -104 -190 -204 -237 l-60
-28 -2185 0 -2185 0 -60 28 c-100 47 -177 136 -204 237 -9 34 -11 346 -9 1270
l3 1225 27 57 c34 73 103 142 176 176 l57 27 657 3 658 2 11 23 c6 12 72 129
146 260 l134 237 622 -2 622 -3 141 -255z"/>
<path d="M3285 4714 c-417 -70 -785 -336 -967 -699 -277 -550 -92 -1218 435
-1571 450 -302 1071 -302 1521 1 438 294 644 804 530 1307 -111 486 -546 878
-1066 963 -114 18 -343 18 -453 -1z m340 -239 c166 -11 374 -88 529 -195 81
-56 212 -186 265 -263 126 -184 187 -432 161 -652 -47 -391 -327 -716 -727
-845 -126 -40 -207 -53 -353 -53 -146 0 -227 13 -353 53 -600 193 -897 819
-643 1356 56 119 92 170 189 271 181 189 441 311 705 332 53 4 108 6 122 5 14
-2 61 -6 105 -9z"/>
</g>
</svg>
