<?xml version="1.0" encoding="UTF-8"?>
<svg width="12px" height="18px" viewBox="0 0 12 18" version="1.1" xmlns="http://www.w3.org/2000/svg" xmlns:xlink="http://www.w3.org/1999/xlink">
    <!-- Generator: Sketch 51.2 (57519) - http://www.bohemiancoding.com/sketch -->
    <title>Fill-9</title>
    <desc>Created with Sketch.</desc>
    <defs></defs>
    <g id="Page-2" stroke="none" stroke-width="1" fill="none" fill-rule="evenodd">
        <path d="M0.303791636,2.17822961 L0.224796375,2.20014106 L-0.24162417,2.31298508 L-0.446082491,2.3606425 L-0.582000806,2.44116711 L-0.519850124,2.53757753 L-0.491388596,2.60221633 L-0.479771646,2.66630735 L-0.497197071,2.7413541 L-0.525658599,2.76819564 L-0.570964704,2.78955931 L-0.559347754,2.89637767 L-0.508233173,3.14342937 L-0.525658599,3.34118028 L-0.514041648,3.46991011 L-0.485580121,3.59370985 L-0.440274016,3.66875659 L-0.34385333,3.72189188 L-0.275894172,3.78105282 L-0.259049595,3.8670553 L-0.29273875,4.00564528 L-0.327008753,4.04344254 L-0.360697908,4.0489204 L-0.394967911,4.06480621 L-0.417620963,4.13492288 L-0.411812488,4.22037755 L-0.355470281,4.25817482 L-0.264277222,4.33322158 L-0.224779592,4.36006312 L-0.19050959,4.40279048 L-0.173665012,4.47235933 L-0.19050959,4.52604242 L-0.230588067,4.52604242 L-0.264277222,4.49920088 L-0.34385333,4.39731261 L-0.411812488,4.39731261 L-0.457118594,4.46688147 L-0.451890966,4.61149713 L-0.378123333,4.78843215 L-0.372314858,4.89086823 L-0.440274016,4.9763229 L-0.389159436,5.0294582 L-0.355470281,5.08314125 L-0.338044855,5.14723228 L-0.338044855,5.20091536 L-0.3043557,5.1954375 L-0.286930275,5.28637003 L-0.230588067,5.4260556 L-0.156820434,5.54437746 L-0.0998973793,5.59258268 L0.0307933091,5.60846849 L0.0882972115,5.69940102 L0.0766802617,5.81717514 L0.00233178121,5.91961122 L0.139411792,6.05929675 L0.190526372,6.14475146 L0.190526372,6.24116186 L0.173681795,6.33209443 L0.178909422,6.42795705 L0.207370949,6.5194374 L0.264294003,6.59996199 L0.235832478,6.48164014 L0.230024003,6.32661657 L0.252677053,6.20336459 L0.315408586,6.18747878 L0.343289265,6.26197776 L0.428673848,6.63721148 L0.485596903,6.69089456 L0.525094535,6.73964756 L0.627323694,6.96424002 L0.696444548,7.15706086 L0.735942177,7.24854117 L0.792865231,7.31811007 L0.872441339,7.39863469 L0.587826065,7.87575668 L0.462943853,7.98805293 L0.576209114,8.21264539 L0.564592164,8.94722702 L0.666821322,9.22605035 L0.684246748,9.15100359 L0.735942177,9.08088691 L0.776020656,9.06554892 L0.827135235,9.10279837 L0.849788289,9.19373094 L0.855015914,9.3328687 L0.951436601,9.69221664 L1.00835966,9.80999072 L1.08793576,9.92228693 L1.18435645,10.0132195 L1.23547103,10.0773105 L1.26916018,10.152905 L1.27496866,10.2389075 L1.25812408,10.3780453 L1.26393256,10.4585699 L1.30923866,10.5281388 L1.46316325,10.6190713 L1.5200863,10.6722066 L1.54273936,10.7319154 L1.59385394,10.9460999 L1.50324173,11.7069753 L1.50324173,11.7716141 L1.51427783,11.8515909 L1.55435631,12.0016844 L1.58804546,12.082209 L1.63335157,12.1523257 L1.69027462,12.2109388 L1.72396378,12.2268246 L1.79773141,12.1786194 L1.84884599,12.1200063 L1.88311599,12.0559153 L1.88311599,11.8839103 L1.90576905,11.8083158 L1.95688363,11.7606584 L1.99173448,11.7392947 L2.03181296,11.7283389 L2.07131059,11.717931 L2.1619228,11.717931 L2.20780975,11.7228611 L2.24730738,11.7497026 L2.28157738,11.782022 L2.42330417,12.0071623 L2.48545485,12.0559153 L2.51972486,12.0663232 L2.58187554,12.1041204 L2.63996029,12.1468478 L2.67364945,12.2963935 L2.6852664,12.3500766 L2.71895555,12.4897621 L2.77007013,12.7149024 L2.83861014,13.0035859 L2.92341387,13.3415701 L3.0154219,13.7529411 L3.40667899,15.3776924 L3.57686731,16.1018661 L3.64482647,16.3910974 L3.69594105,16.6156898 L3.73021105,16.7608532 L3.74705563,16.8090585 L3.75809173,16.8841052 L3.77551716,17.0018793 L3.77551716,17.2587912 L3.91840565,17.4685934 L4.03747939,17.6395028 L4.86692963,17.4735235 L5.14573641,17.4198404 L5.42396237,17.3661573 L5.70160746,17.3124743 L5.97518665,17.2533133 L6.25283174,17.1996302 L6.5322194,17.1470427 L6.80463689,17.087334 L7.08344368,17.0341987 L7.36166964,16.9805156 L7.63931476,16.9219025 L7.91289392,16.8682194 L8.19053905,16.8090585 L8.46992666,16.7553754 L8.37931446,16.5625545 L8.2306175,16.4442327 L7.92973848,16.2788012 L7.86177933,16.2141624 L7.81647325,16.1550014 L7.77116712,16.0805025 L7.73108863,15.9780664 L7.70320798,15.8548144 L7.70843561,15.7638819 L7.72586104,15.683905 L7.7427056,15.5765389 L7.70320798,15.270874 L7.70843561,15.142692 L7.79382019,15.0676453 L7.91289392,14.9920507 L7.93554698,14.8633209 L7.87281543,14.5472481 L7.86758779,14.139695 L7.83912627,13.9791935 L7.7595502,13.8077364 L7.73689714,13.7277596 L7.69159101,13.4379805 L7.72005254,13.3897753 L7.73689714,13.3097985 L7.70320798,13.2506376 L7.67358475,13.223796 L7.66196779,13.1328634 L7.66777629,13.0572689 L7.69159101,12.9822222 L7.73108863,12.9071754 L7.76535866,12.7631076 L7.73689714,12.6075362 L7.64512323,12.3500766 L7.37270573,11.176718 L7.35586117,10.989375 L7.3843227,10.876531 L7.53127713,10.6672766 L7.57716408,10.5281388 L7.58820018,10.3835231 L7.55973865,10.088814 L7.51443253,9.84724021 L7.53127713,9.76726336 L7.65093169,9.62209997 L7.69739951,9.51528158 L7.91812155,9.20468667 L7.95239154,9.08088691 L7.95820004,8.9362713 L7.95239154,8.78069995 L7.92393001,8.63115425 L7.91812155,8.48106073 L7.95820004,8.32001152 L8.19053905,7.76839055 L8.19053905,7.71470747 L8.14523292,7.68731815 L8.08308224,7.65499874 L8.04300375,7.60186344 L8.04881225,7.48956723 L8.17950291,7.04969469 L8.19634751,6.8141465 L8.15684989,6.54573113 L7.99188916,5.95083503 L7.94135544,5.59258268 L7.99188916,5.31923722 L8.15684989,5.1258686 L8.41881208,5.0086423 L8.69122957,4.95495922 L8.81611177,4.90072836 L8.90091551,4.80979583 L9.02695945,4.55781404 L9.08911013,4.46688147 L9.49163741,4.07521416 L9.62348981,3.98975947 L9.65195134,3.91471272 L9.70887439,3.74928121 L9.85582882,3.56084266 L9.92436883,3.41622703 L9.89590731,3.29352286 L9.85060118,3.17574877 L9.85060118,3.03606322 L9.89590731,2.98785801 L9.96386645,2.97142442 L10.026598,2.94513067 L10.0544787,2.86405827 L10.0376341,2.79996725 L9.98071101,2.73587623 L9.88429034,2.66082949 L9.61245372,2.31298508 L9.56017743,2.21602687 L9.48640982,2.10373065 L9.38418065,2.03416176 L9.30460453,1.93720356 L9.27614301,1.76026853 L9.34468303,1.48747087 L9.50906284,1.09580354 L9.6635683,0.726047669 L9.66879594,0.549660427 L9.58805812,0.452702222 L9.48640982,0.372725397 L9.40683371,0.222631904 L9.37314455,0.0402190088 L9.40683371,-0.039757816 C9.48475635,-0.0759130719 9.51302425,-0.091981475 9.49163741,-0.0879630254 C9.36142305,-0.0634965785 9.18155394,-0.0189432788 8.9520301,0.0456968736 L8.41300361,0.185382424 L7.87281543,0.319042323 L7.33320811,0.458180086 L6.79301993,0.591839985 L6.25283174,0.726047669 L5.71322442,0.860255357 L5.17419794,0.993915254 L4.63400975,1.12867073 L4.08859397,1.26287841 L3.54840579,1.39653831 L3.00821761,1.52472034 L1.9284221,1.79258793 L1.38358714,1.92131775 L0.883477443,2.03963963 L0.843979814,2.05004757 L0.666821322,2.09277492 L0.576209114,2.11413859 L0.303791636,2.17822961 Z" id="Fill-9" stroke="#FFFFFF" stroke-width="0.5" fill-rule="nonzero" transform="translate(4.736239, 8.775468) rotate(12.000000) translate(-4.736239, -8.775468) "></path>
    </g>
</svg>