<?xml version="1.0" encoding="UTF-8"?>
<svg width="12px" height="17px" viewBox="0 0 12 17" version="1.1" xmlns="http://www.w3.org/2000/svg" xmlns:xlink="http://www.w3.org/1999/xlink">
    <!-- Generator: Sketch 51.2 (57519) - http://www.bohemiancoding.com/sketch -->
    <title>Fill-9</title>
    <desc>Created with Sketch.</desc>
    <defs></defs>
    <g id="Page-2" stroke="none" stroke-width="1" fill="none" fill-rule="evenodd">
        <path d="M0.303791636,1.17822961 L0.224796375,1.20014106 L-0.24162417,1.31298508 L-0.446082491,1.3606425 L-0.582000806,1.44116711 L-0.519850124,1.53757753 L-0.491388596,1.60221633 L-0.479771646,1.66630735 L-0.497197071,1.7413541 L-0.525658599,1.76819564 L-0.570964704,1.78955931 L-0.559347754,1.89637767 L-0.508233173,2.14342937 L-0.525658599,2.34118028 L-0.514041648,2.46991011 L-0.485580121,2.59370985 L-0.440274016,2.66875659 L-0.34385333,2.72189188 L-0.275894172,2.78105282 L-0.259049595,2.8670553 L-0.29273875,3.00564528 L-0.327008753,3.04344254 L-0.360697908,3.0489204 L-0.394967911,3.06480621 L-0.417620963,3.13492288 L-0.411812488,3.22037755 L-0.355470281,3.25817482 L-0.264277222,3.33322158 L-0.224779592,3.36006312 L-0.19050959,3.40279048 L-0.173665012,3.47235933 L-0.19050959,3.52604242 L-0.230588067,3.52604242 L-0.264277222,3.49920088 L-0.34385333,3.39731261 L-0.411812488,3.39731261 L-0.457118594,3.46688147 L-0.451890966,3.61149713 L-0.378123333,3.78843215 L-0.372314858,3.89086823 L-0.440274016,3.9763229 L-0.389159436,4.0294582 L-0.355470281,4.08314125 L-0.338044855,4.14723228 L-0.338044855,4.20091536 L-0.3043557,4.1954375 L-0.286930275,4.28637003 L-0.230588067,4.4260556 L-0.156820434,4.54437746 L-0.0998973793,4.59258268 L0.0307933091,4.60846849 L0.0882972115,4.69940102 L0.0766802617,4.81717514 L0.00233178121,4.91961122 L0.139411792,5.05929675 L0.190526372,5.14475146 L0.190526372,5.24116186 L0.173681795,5.33209443 L0.178909422,5.42795705 L0.207370949,5.5194374 L0.264294003,5.59996199 L0.235832478,5.48164014 L0.230024003,5.32661657 L0.252677053,5.20336459 L0.315408586,5.18747878 L0.343289265,5.26197776 L0.428673848,5.63721148 L0.485596903,5.69089456 L0.525094535,5.73964756 L0.627323694,5.96424002 L0.696444548,6.15706086 L0.735942177,6.24854117 L0.792865231,6.31811007 L0.872441339,6.39863469 L0.587826065,6.87575668 L0.462943853,6.98805293 L0.576209114,7.21264539 L0.564592164,7.94722702 L0.666821322,8.22605035 L0.684246748,8.15100359 L0.735942177,8.08088691 L0.776020656,8.06554892 L0.827135235,8.10279837 L0.849788289,8.19373094 L0.855015914,8.3328687 L0.951436601,8.69221664 L1.00835966,8.80999072 L1.08793576,8.92228693 L1.18435645,9.0132195 L1.23547103,9.07731054 L1.26916018,9.15290504 L1.27496866,9.23890752 L1.25812408,9.37804528 L1.26393256,9.4585699 L1.30923866,9.5281388 L1.46316325,9.61907133 L1.5200863,9.67220664 L1.54273936,9.73191536 L1.59385394,9.94609988 L1.50324173,10.7069753 L1.50324173,10.7716141 L1.51427783,10.8515909 L1.55435631,11.0016844 L1.58804546,11.082209 L1.63335157,11.1523257 L1.69027462,11.2109388 L1.72396378,11.2268246 L1.79773141,11.1786194 L1.84884599,11.1200063 L1.88311599,11.0559153 L1.88311599,10.8839103 L1.90576905,10.8083158 L1.95688363,10.7606584 L1.99173448,10.7392947 L2.03181296,10.7283389 L2.07131059,10.717931 L2.1619228,10.717931 L2.20780975,10.7228611 L2.24730738,10.7497026 L2.28157738,10.782022 L2.42330417,11.0071623 L2.48545485,11.0559153 L2.51972486,11.0663232 L2.58187554,11.1041204 L2.63996029,11.1468478 L2.67364945,11.2963935 L2.6852664,11.3500766 L2.71895555,11.4897621 L2.77007013,11.7149024 L2.83861014,12.0035859 L2.92341387,12.3415701 L3.0154219,12.7529411 L3.40667899,14.3776924 L3.57686731,15.1018661 L3.64482647,15.3910974 L3.69594105,15.6156898 L3.73021105,15.7608532 L3.74705563,15.8090585 L3.75809173,15.8841052 L3.77551716,16.0018793 L3.77551716,16.2587912 L3.91840565,16.4685934 L4.03747939,16.6395028 L4.86692963,16.4735235 L5.14573641,16.4198404 L5.42396237,16.3661573 L5.70160746,16.3124743 L5.97518665,16.2533133 L6.25283174,16.1996302 L6.5322194,16.1470427 L6.80463689,16.087334 L7.08344368,16.0341987 L7.36166964,15.9805156 L7.63931476,15.9219025 L7.91289392,15.8682194 L8.19053905,15.8090585 L8.46992666,15.7553754 L8.37931446,15.5625545 L8.2306175,15.4442327 L7.92973848,15.2788012 L7.86177933,15.2141624 L7.81647325,15.1550014 L7.77116712,15.0805025 L7.73108863,14.9780664 L7.70320798,14.8548144 L7.70843561,14.7638819 L7.72586104,14.683905 L7.7427056,14.5765389 L7.70320798,14.270874 L7.70843561,14.142692 L7.79382019,14.0676453 L7.91289392,13.9920507 L7.93554698,13.8633209 L7.87281543,13.5472481 L7.86758779,13.139695 L7.83912627,12.9791935 L7.7595502,12.8077364 L7.73689714,12.7277596 L7.69159101,12.4379805 L7.72005254,12.3897753 L7.73689714,12.3097985 L7.70320798,12.2506376 L7.67358475,12.223796 L7.66196779,12.1328634 L7.66777629,12.0572689 L7.69159101,11.9822222 L7.73108863,11.9071754 L7.76535866,11.7631076 L7.73689714,11.6075362 L7.64512323,11.3500766 L7.37270573,10.176718 L7.35586117,9.98937501 L7.3843227,9.87653098 L7.53127713,9.66727655 L7.57716408,9.5281388 L7.58820018,9.38352314 L7.55973865,9.08881404 L7.51443253,8.84724021 L7.53127713,8.76726336 L7.65093169,8.62209997 L7.69739951,8.51528158 L7.91812155,8.20468667 L7.95239154,8.08088691 L7.95820004,7.9362713 L7.95239154,7.78069995 L7.92393001,7.63115425 L7.91812155,7.48106073 L7.95820004,7.32001152 L8.19053905,6.76839055 L8.19053905,6.71470747 L8.14523292,6.68731815 L8.08308224,6.65499874 L8.04300375,6.60186344 L8.04881225,6.48956723 L8.17950291,6.04969469 L8.19634751,5.8141465 L8.15684989,5.54573113 L7.99188916,4.95083503 L7.94135544,4.59258268 L7.99188916,4.31923722 L8.15684989,4.1258686 L8.41881208,4.0086423 L8.69122957,3.95495922 L8.81611177,3.90072836 L8.90091551,3.80979583 L9.02695945,3.55781404 L9.08911013,3.46688147 L9.49163741,3.07521416 L9.62348981,2.98975947 L9.65195134,2.91471272 L9.70887439,2.74928121 L9.85582882,2.56084266 L9.92436883,2.41622703 L9.89590731,2.29352286 L9.85060118,2.17574877 L9.85060118,2.03606322 L9.89590731,1.98785801 L9.96386645,1.97142442 L10.026598,1.94513067 L10.0544787,1.86405827 L10.0376341,1.79996725 L9.98071101,1.73587623 L9.88429034,1.66082949 L9.61245372,1.31298508 L9.56017743,1.21602687 L9.48640982,1.10373065 L9.38418065,1.03416176 L9.30460453,0.937203558 L9.27614301,0.760268528 L9.34468303,0.487470866 L9.50906284,0.0958035396 L9.6635683,-0.273952331 L9.66879594,-0.450339573 L9.58805812,-0.547297778 L9.48640982,-0.627274603 L9.40683371,-0.777368096 L9.37314455,-0.959780991 L9.40683371,-1.03975782 C9.48475635,-1.07591307 9.51302425,-1.09198148 9.49163741,-1.08796303 C9.36142305,-1.06349658 9.18155394,-1.01894328 8.9520301,-0.954303126 L8.41300361,-0.814617576 L7.87281543,-0.680957677 L7.33320811,-0.541819914 L6.79301993,-0.408160015 L6.25283174,-0.273952331 L5.71322442,-0.139744643 L5.17419794,-0.00608474628 L4.63400975,0.128670727 L4.08859397,0.262878411 L3.54840579,0.396538312 L3.00821761,0.524720345 L1.9284221,0.792587929 L1.38358714,0.921317753 L0.883477443,1.03963963 L0.843979814,1.05004757 L0.666821322,1.09277492 L0.576209114,1.11413859 L0.303791636,1.17822961 Z" id="Fill-9" fill="#FFFFFF" fill-rule="nonzero" transform="translate(4.736239, 7.775468) rotate(12.000000) translate(-4.736239, -7.775468) "></path>
    </g>
</svg>